# Blender 3.6.22
# www.blender.org
mtllib 3.mtl
o suelo.011
v 3.705108 0.008137 -6.556639
v 2.705722 0.043140 -6.552778
v -13.294585 -0.012185 -6.555723
v -13.294585 -0.012184 1.372784
v 3.705150 0.008018 1.338928
v 9.964683 -0.012185 -6.555723
v 2.705679 0.038174 1.338917
v -5.409374 -0.012184 1.372787
v -5.409374 -0.012182 9.025950
v 2.311517 -0.012182 9.093677
v 2.311517 -0.012184 1.338924
v 9.998543 -0.012184 1.338924
vn -0.0326 -0.9995 -0.0003
vn -0.0000 1.0000 -0.0000
vt 0.005873 -9.133655
vt 0.388650 -9.134958
vt 0.388650 -6.465757
vt 0.005873 -6.465763
vt 9.082213 -16.095867
vt 9.082214 -11.983979
vt 4.992780 -11.983976
vt 4.992780 -8.014888
vt 0.988563 -7.979762
vt 0.988563 -12.001539
vt -2.998090 -12.001539
vt -2.980529 -16.095867
s 0
usemtl Material.006
f 2/1/1 1/2/1 5/3/1 7/4/1
usemtl Material.005
f 3/5/2 4/6/2 8/7/2 9/8/2 10/9/2 11/10/2 12/11/2 6/12/2
