# Blender 3.6.22
# www.blender.org
mtllib 7.mtl
o suelo.015
v 10.058229 -0.009680 11.579193
v -5.050969 0.030879 -3.744376
v -4.051330 0.010281 -3.763240
v -5.419310 -0.009683 -3.737433
v 2.334090 -0.009683 -3.883723
v 2.285327 -0.009685 -11.637126
v 10.136253 -0.009685 -11.637128
v -4.051290 0.010167 3.796534
v -5.051009 0.026134 3.796532
v 2.217056 -0.009680 11.637704
v 2.158542 -0.009682 3.796531
v -5.565599 -0.009682 3.796533
vn -0.0183 -0.9998 -0.0003
vn -0.0000 1.0000 -0.0000
vt 0.005873 -1.204076
vt 0.388650 -1.210453
vt 0.388650 1.345229
vt 0.005873 1.345228
vt -2.985164 4.047847
vt -7.051761 4.017503
vt -7.092226 -8.022965
vt -3.020571 -8.022964
vt -3.045860 -4.001889
vt 0.975216 -3.926021
vt 1.051084 -0.018749
vt -2.954817 -0.018749
s 0
usemtl Material.006
f 2/1/1 3/2/1 8/3/1 9/4/1
usemtl Material.005
f 10/5/2 1/6/2 7/7/2 6/8/2 5/9/2 4/10/2 12/11/2 11/12/2
