# Blender 3.6.22
# www.blender.org
mtllib 9.mtl
o suelo.017
v -4.862164 0.017387 1.481268
v -3.862319 0.010968 -6.026220
v -3.862279 0.010854 1.487415
v -4.862124 0.022109 -6.024002
v 10.247157 -0.008761 -6.098687
v -5.251153 -0.008760 1.478872
v 2.566716 -0.008760 1.526949
v 10.125075 -0.008758 12.118900
v 2.566719 -0.008758 12.118900
v 2.405984 -0.008761 -6.040176
v -5.211606 -0.008761 -6.023225
vn -0.0088 -1.0000 -0.0003
vn -0.0000 1.0000 -0.0000
vt 0.005873 4.001509
vt 0.388650 4.000758
vt 0.388650 6.540843
vt 0.005873 6.538765
vt -6.988447 13.465525
vt -7.051761 4.017503
vt -2.985164 4.047847
vt 0.965478 4.056638
vt 0.985988 7.947382
vt -3.068523 7.972316
vt -3.068525 13.465525
s 0
usemtl Material.006
f 4/1/1 2/2/1 3/3/1 1/4/1
usemtl Material.005
f 8/5/2 5/6/2 10/7/2 11/8/2 6/9/2 7/10/2 9/11/2
