# Blender 4.4.3
# www.blender.org
mtllib 1er_ventana_der.mtl
o bolleano.008
v 24.290340 7.528410 28.204472
v 25.290340 7.528411 28.204472
v 24.290340 2.924593 28.204472
v 25.290340 2.924592 28.204472
v 24.290340 2.924593 28.437893
v 24.290340 7.528410 28.437893
v 25.290340 2.924592 28.437893
v 25.290340 7.528411 28.437893
v 24.654320 2.924593 25.010187
v 24.654320 7.528410 25.010187
v 24.813122 2.924593 25.010187
v 24.813124 7.528410 25.010187
v 24.654320 2.924593 31.600967
v 24.654322 7.528410 31.600967
v 24.813124 2.924593 31.600967
v 24.813124 7.528410 31.600967
vn -0.0000 -0.0000 -1.0000
vn -0.0000 -0.0000 1.0000
vn -0.0000 -1.0000 -0.0000
vn -0.0000 1.0000 -0.0000
vn 1.0000 -0.0000 -0.0000
vn -1.0000 -0.0000 -0.0000
vt 0.000000 0.000000
vt 0.375000 0.000000
vt 0.625000 0.000000
s 0
usemtl Material.038
f 2/1/1 4/1/1 3/1/1 1/1/1
f 8/1/2 6/1/2 5/1/2 7/1/2
f 7/1/3 5/1/3 3/1/3 4/1/3
f 6/1/4 8/1/4 2/1/4 1/1/4
f 8/1/5 7/1/5 4/1/5 2/1/5
f 5/1/6 6/1/6 1/1/6 3/1/6
usemtl Material.037
f 9/2/1 10/3/1 12/3/1 11/2/1
f 13/2/2 15/2/2 16/3/2 14/3/2
f 12/3/5 16/3/5 15/2/5 11/2/5
f 10/3/4 14/3/4 16/3/4 12/3/4
f 9/2/6 13/2/6 14/3/6 10/3/6
f 11/2/3 15/2/3 13/2/3 9/2/3
