# Blender 4.4.2
# www.blender.org
mtllib columna der.mtl
o Plane.021
v 23.505146 -0.000000 23.534561
v 22.494854 -0.000000 23.534561
v 22.494854 -0.000000 24.534561
v 23.505146 -0.000000 24.534561
v 23.505146 -0.000000 7.534561
v 22.494854 -0.000000 7.534561
v 22.494854 -0.000000 8.534561
v 23.505146 -0.000000 8.534561
v 23.505146 -0.000000 -8.465439
v 22.494854 -0.000000 -8.465439
v 22.494854 -0.000000 -7.465439
v 23.505146 -0.000000 -7.465439
v 23.505146 -0.000000 -24.465439
v 22.494854 -0.000000 -24.465439
v 22.494854 -0.000000 -23.465439
v 23.505146 -0.000000 -23.465439
v 24.505146 -0.000000 23.534561
v 23.494854 -0.000000 23.534561
v 23.494854 -0.000000 24.534561
v 24.505146 -0.000000 24.534561
v 24.505146 -0.000000 7.534561
v 23.494854 -0.000000 7.534561
v 23.494854 -0.000000 8.534561
v 24.505146 -0.000000 8.534561
v 24.505146 -0.000000 -8.465439
v 23.494854 -0.000000 -8.465439
v 23.494854 -0.000000 -7.465439
v 24.505146 -0.000000 -7.465439
v 24.505146 -0.000000 -24.465439
v 23.494854 -0.000000 -24.465439
v 23.494854 -0.000000 -23.465439
v 24.505146 -0.000000 -23.465439
v 22.494854 10.000000 23.534561
v 23.505146 10.000000 23.534561
v 23.505146 10.000000 24.534561
v 22.494854 10.000000 24.534561
v 22.494854 10.000000 7.534561
v 23.505146 10.000000 7.534561
v 23.505146 10.000000 8.534561
v 22.494854 10.000000 8.534561
v 22.494854 10.000000 -8.465439
v 23.505146 10.000000 -8.465439
v 23.505146 10.000000 -7.465439
v 22.494854 10.000000 -7.465439
v 22.494854 10.000000 -24.465439
v 23.505146 10.000000 -24.465439
v 23.505146 10.000000 -23.465439
v 22.494854 10.000000 -23.465439
v 23.494854 10.000000 23.534561
v 24.505146 10.000000 23.534561
v 24.505146 10.000000 24.534561
v 23.494854 10.000000 24.534561
v 23.494854 10.000000 7.534561
v 24.505146 10.000000 7.534561
v 24.505146 10.000000 8.534561
v 23.494854 10.000000 8.534561
v 23.494854 10.000000 -8.465439
v 24.505146 10.000000 -8.465439
v 24.505146 10.000000 -7.465439
v 23.494854 10.000000 -7.465439
v 23.494854 10.000000 -24.465439
v 24.505146 10.000000 -24.465439
v 24.505146 10.000000 -23.465439
v 23.494854 10.000000 -23.465439
v 23.505146 -0.000000 25.034561
v 22.494854 -0.000000 25.034561
v 23.505146 -0.000000 9.034561
v 22.494854 -0.000000 9.034561
v 23.505146 -0.000000 -6.965439
v 22.494854 -0.000000 -6.965439
v 23.505146 -0.000000 -22.965439
v 22.494854 -0.000000 -22.965439
v 24.505146 -0.000000 25.034561
v 23.494854 -0.000000 25.034561
v 24.505146 -0.000000 9.034561
v 23.494854 -0.000000 9.034561
v 24.505146 -0.000000 -6.965439
v 23.494854 -0.000000 -6.965439
v 24.505146 -0.000000 -22.965439
v 23.494854 -0.000000 -22.965439
v 23.505146 10.000000 25.034561
v 22.494854 10.000000 25.034561
v 23.505146 10.000000 9.034561
v 22.494854 10.000000 9.034561
v 23.505146 10.000000 -6.965439
v 22.494854 10.000000 -6.965439
v 23.505146 10.000000 -22.965439
v 22.494854 10.000000 -22.965439
v 24.505146 10.000000 25.034561
v 23.494854 10.000000 25.034561
v 24.505146 10.000000 9.034561
v 23.494854 10.000000 9.034561
v 24.505146 10.000000 -6.965439
v 23.494854 10.000000 -6.965439
v 24.505146 10.000000 -22.965439
v 23.494854 10.000000 -22.965439
v 23.505146 -0.000000 -0.465439
v 22.494854 -0.000000 -0.465439
v 22.494854 -0.000000 0.534561
v 23.505146 -0.000000 0.534561
v 24.505146 -0.000000 -0.465439
v 23.494854 -0.000000 -0.465439
v 23.494854 -0.000000 0.534561
v 24.505146 -0.000000 0.534561
v 22.494854 10.000001 -0.465439
v 23.505146 10.000001 -0.465439
v 23.505146 10.000001 0.534561
v 22.494854 10.000001 0.534561
v 23.494854 10.000001 -0.465439
v 24.505146 10.000001 -0.465439
v 24.505146 10.000001 0.534561
v 23.494854 10.000001 0.534561
vn -0.0000 -1.0000 -0.0000
vn -0.0000 1.0000 -0.0000
vn -0.0000 -0.0000 -1.0000
vn -1.0000 -0.0000 -0.0000
vn 1.0000 -0.0000 -0.0000
vn -0.0000 -0.0000 1.0000
vt 0.498539 0.999243
vt 0.998047 0.998047
vt 0.999024 0.499023
vt 0.499269 0.499622
s 0
usemtl Material.036
f 2/1/1 1/2/1 4/3/1 3/4/1
f 6/1/1 5/2/1 8/3/1 7/4/1
f 10/1/1 9/2/1 12/3/1 11/4/1
f 14/1/1 13/2/1 16/3/1 15/4/1
f 18/1/1 17/2/1 20/3/1 19/4/1
f 22/1/1 21/2/1 24/3/1 23/4/1
f 26/1/1 25/2/1 28/3/1 27/4/1
f 30/1/1 29/2/1 32/3/1 31/4/1
f 33/1/2 36/4/2 35/3/2 34/2/2
f 37/1/2 40/4/2 39/3/2 38/2/2
f 41/1/2 44/4/2 43/3/2 42/2/2
f 45/1/2 48/4/2 47/3/2 46/2/2
f 49/1/2 52/4/2 51/3/2 50/2/2
f 53/1/2 56/4/2 55/3/2 54/2/2
f 57/1/2 60/4/2 59/3/2 58/2/2
f 61/1/2 64/4/2 63/3/2 62/2/2
f 5/2/3 6/1/3 37/1/3 38/2/3
f 43/3/2 44/4/2 86/4/2 85/3/2
f 18/1/4 19/4/4 52/4/4 49/1/4
f 8/3/5 5/2/5 38/2/5 39/3/5
f 28/3/5 59/3/5 93/3/5 77/3/5
f 6/1/4 7/4/4 40/4/4 37/1/4
f 21/2/3 22/1/3 53/1/3 54/2/3
f 15/4/1 16/3/1 71/3/1 72/4/1
f 24/3/5 21/2/5 54/2/5 55/3/5
f 9/2/3 10/1/3 41/1/3 42/2/3
f 22/1/4 23/4/4 56/4/4 53/1/4
f 12/3/5 9/2/5 42/2/5 43/3/5
f 55/3/2 56/4/2 92/4/2 91/3/2
f 10/1/4 11/4/4 44/4/4 41/1/4
f 25/2/3 26/1/3 57/1/3 58/2/3
f 52/4/4 19/4/4 74/4/4 90/4/4
f 28/3/5 25/2/5 58/2/5 59/3/5
f 13/2/3 14/1/3 45/1/3 46/2/3
f 26/1/4 27/4/4 60/4/4 57/1/4
f 16/3/5 13/2/5 46/2/5 47/3/5
f 1/2/3 2/1/3 33/1/3 34/2/3
f 27/4/1 28/3/1 77/3/1 78/4/1
f 14/1/4 15/4/4 48/4/4 45/1/4
f 4/3/5 1/2/5 34/2/5 35/3/5
f 29/2/3 30/1/3 61/1/3 62/2/3
f 36/4/4 3/4/4 66/4/4 82/4/4
f 2/1/4 3/4/4 36/4/4 33/1/4
f 32/3/5 29/2/5 62/2/5 63/3/5
f 17/2/3 18/1/3 49/1/3 50/2/3
f 64/4/4 31/4/4 80/4/4 96/4/4
f 30/1/4 31/4/4 64/4/4 61/1/4
f 20/3/5 17/2/5 50/2/5 51/3/5
f 80/4/6 79/3/6 95/3/6 96/4/6
f 74/4/6 73/3/6 89/3/6 90/4/6
f 68/4/6 67/3/6 83/3/6 84/4/6
f 76/4/6 75/3/6 91/3/6 92/4/6
f 70/4/6 69/3/6 85/3/6 86/4/6
f 78/4/6 77/3/6 93/3/6 94/4/6
f 72/4/6 71/3/6 87/3/6 88/4/6
f 66/4/6 65/3/6 81/3/6 82/4/6
f 8/3/5 39/3/5 83/3/5 67/3/5
f 3/4/1 4/3/1 65/3/1 66/4/1
f 20/3/5 51/3/5 89/3/5 73/3/5
f 31/4/1 32/3/1 79/3/1 80/4/1
f 40/4/4 7/4/4 68/4/4 84/4/4
f 59/3/2 60/4/2 94/4/2 93/3/2
f 60/4/4 27/4/4 78/4/4 94/4/4
f 19/4/1 20/3/1 73/3/1 74/4/1
f 16/3/5 47/3/5 87/3/5 71/3/5
f 47/3/2 48/4/2 88/4/2 87/3/2
f 7/4/1 8/3/1 67/3/1 68/4/1
f 24/3/5 55/3/5 91/3/5 75/3/5
f 35/3/2 36/4/2 82/4/2 81/3/2
f 63/3/2 64/4/2 96/4/2 95/3/2
f 48/4/4 15/4/4 72/4/4 88/4/4
f 23/4/1 24/3/1 75/3/1 76/4/1
f 4/3/5 35/3/5 81/3/5 65/3/5
f 51/3/2 52/4/2 90/4/2 89/3/2
f 56/4/4 23/4/4 76/4/4 92/4/4
f 11/4/1 12/3/1 69/3/1 70/4/1
f 12/3/5 43/3/5 85/3/5 69/3/5
f 39/3/2 40/4/2 84/4/2 83/3/2
f 32/3/5 63/3/5 95/3/5 79/3/5
f 44/4/4 11/4/4 70/4/4 86/4/4
f 98/1/1 97/2/1 100/3/1 99/4/1
f 102/1/1 101/2/1 104/3/1 103/4/1
f 105/1/2 108/4/2 107/3/2 106/2/2
f 109/1/2 112/4/2 111/3/2 110/2/2
f 97/2/3 98/1/3 105/1/3 106/2/3
f 100/3/5 97/2/5 106/2/5 107/3/5
f 98/1/4 99/4/4 108/4/4 105/1/4
f 101/2/3 102/1/3 109/1/3 110/2/3
f 104/3/5 101/2/5 110/2/5 111/3/5
f 102/1/4 103/4/4 112/4/4 109/1/4
f 103/4/6 104/3/6 111/3/6 112/4/6
f 99/4/6 100/3/6 107/3/6 108/4/6
o coso_pared
v 22.581448 2.825457 31.534565
v 22.581448 2.325457 31.534565
v 24.499992 2.825457 31.534565
v 24.499992 2.325457 31.534565
v 22.581438 2.825457 -24.965435
v 22.581438 2.325457 -24.965435
v 24.499985 2.825457 -24.965435
v 24.499985 2.325457 -24.965435
v 22.581444 2.325457 9.012741
v 22.581442 2.325457 -8.406092
v 24.499987 2.325457 -8.406092
v 24.499989 2.325457 9.012741
v 24.499989 2.825457 9.012741
v 24.499987 2.825457 -8.406092
v 22.581444 2.825457 9.012741
v 22.581442 2.825457 -8.406092
vn -0.0000 -0.0000 1.0000
vn -0.0000 -0.0000 -1.0000
vn -0.0000 -1.0000 -0.0000
vn 1.0000 -0.0000 -0.0000
vn -0.0000 1.0000 -0.0000
vn -1.0000 -0.0000 -0.0000
vt 0.500000 0.000000
vt 1.000000 0.000000
vt 0.472941 0.497605
vt 0.535441 0.497605
vt 0.535441 0.257786
vt 0.472941 0.257786
vt 0.472941 0.752395
vt 0.472941 0.992213
vt 0.535441 0.992213
vt 0.535441 0.752395
s 0
usemtl Material.015
f 114/5/7 116/5/7 115/6/7 113/6/7
f 118/5/8 117/6/8 119/6/8 120/5/8
f 118/5/9 120/5/9 123/5/9 122/5/9
f 116/5/9 114/5/9 121/5/9 124/5/9
f 123/5/10 120/5/10 119/6/10 126/6/10
f 115/6/10 116/5/10 124/5/10 125/6/10
f 126/6/11 119/6/11 117/6/11 128/6/11
f 113/6/11 115/6/11 125/6/11 127/6/11
f 128/6/12 117/6/12 118/5/12 122/5/12
f 121/5/12 114/5/12 113/6/12 127/6/12
f 123/7/7 126/8/7 128/9/7 122/10/7
f 124/11/8 121/12/8 127/13/8 125/14/8
