# Blender 4.3.2
# www.blender.org
mtllib leds.mtl
o luces
v 10.217055 9.802585 12.284944
v 18.398376 9.802585 12.284944
v 10.217055 9.802585 10.284944
v 18.398376 9.802585 10.284944
v 10.217055 9.938837 12.284944
v 18.398376 9.938837 12.284944
v 10.217055 9.938837 10.284944
v 18.398376 9.938837 10.284944
v 18.398376 9.938836 1.499722
v 10.217055 9.938836 1.499722
v 18.398376 9.938836 3.499722
v 10.217055 9.938836 3.499722
v 18.398376 9.802584 1.499722
v 10.217055 9.802584 1.499722
v 18.398376 9.802584 3.499722
v 10.217055 9.802584 3.499722
v 10.217055 9.802584 -4.127319
v 18.398376 9.802584 -4.127319
v 10.217055 9.802584 -6.127319
v 18.398376 9.802584 -6.127319
v 10.217055 9.802586 27.736767
v 18.398376 9.802586 27.736767
v 10.217055 9.802586 25.736767
v 18.398376 9.802586 25.736767
v 10.217055 9.938838 27.736767
v 18.398376 9.938838 27.736767
v 10.217055 9.938838 25.736767
v 18.398376 9.938838 25.736767
v -3.889921 9.802586 20.222717
v 4.291400 9.802586 20.222717
v -3.889921 9.802585 18.222717
v 4.291400 9.802585 18.222717
v -3.889921 9.938838 20.222717
v 4.291400 9.938838 20.222717
v -3.889921 9.938837 18.222717
v 4.291400 9.938837 18.222717
v 4.291400 9.938836 -6.127319
v -3.889921 9.938836 -6.127319
v 4.291400 9.938836 -4.127319
v -3.889921 9.938836 -4.127319
v -3.889921 9.802583 -12.291079
v 4.291400 9.802583 -12.291079
v -3.889921 9.802583 -14.291079
v 4.291400 9.802583 -14.291079
v -3.889921 9.938835 -12.291079
v 4.291400 9.938835 -12.291079
v -3.889921 9.938835 -14.291079
v 4.291400 9.938835 -14.291079
v 4.291400 9.938834 -21.211912
v -3.889921 9.938834 -21.211912
v 4.291400 9.938834 -19.211912
v -3.889921 9.938834 -19.211912
v 4.291400 9.802582 -21.211912
v -3.889921 9.802582 -21.211912
v 4.291400 9.802582 -19.211912
v -3.889921 9.802582 -19.211912
v 10.217055 9.802582 -19.211912
v 18.398376 9.802582 -19.211912
v 10.217055 9.802582 -21.211912
v 18.398376 9.802582 -21.211912
v 10.217055 9.938834 -19.211912
v 18.398376 9.938834 -19.211912
v 10.217055 9.938834 -21.211912
v 18.398376 9.938834 -21.211912
v 18.398376 9.938835 -14.291079
v 10.217055 9.938835 -14.291079
v 18.398376 9.938835 -12.291079
v 10.217055 9.938835 -12.291079
v 18.398376 9.802583 -14.291079
v 10.217055 9.802583 -14.291079
v 18.398376 9.802583 -12.291079
v 10.217055 9.802583 -12.291079
v 10.217055 9.938836 -4.127319
v 18.398376 9.938836 -4.127319
v 10.217055 9.938836 -6.127319
v 18.398376 9.938836 -6.127319
v 18.398376 9.938837 18.222717
v 10.217055 9.938837 18.222717
v 18.398376 9.938838 20.222717
v 10.217055 9.938838 20.222717
v 18.398376 9.802585 18.222717
v 10.217055 9.802585 18.222717
v 18.398376 9.802586 20.222717
v 10.217055 9.802586 20.222717
v 4.291400 9.938838 25.736767
v -3.889921 9.938838 25.736767
v 4.291400 9.938838 27.736767
v -3.889921 9.938838 27.736767
v 4.291400 9.802586 25.736767
v -3.889921 9.802586 25.736767
v 4.291400 9.802586 27.736767
v -3.889921 9.802586 27.736767
v 4.291400 9.802584 -6.127319
v -3.889921 9.802584 -6.127319
v 4.291400 9.802584 -4.127319
v -3.889921 9.802584 -4.127319
v -3.889921 9.802584 3.499722
v 4.291400 9.802584 3.499722
v -3.889921 9.802584 1.499722
v 4.291400 9.802584 1.499722
v -3.889921 9.938836 3.499722
v 4.291400 9.938836 3.499722
v -3.889921 9.938836 1.499722
v 4.291400 9.938836 1.499722
v 4.291400 9.938837 10.284944
v -3.889921 9.938837 10.284944
v 4.291400 9.938837 12.284944
v -3.889921 9.938837 12.284944
v 4.291400 9.802585 10.284944
v -3.889921 9.802585 10.284944
v 4.291400 9.802585 12.284944
v -3.889921 9.802585 12.284944
vn -0.0000 -1.0000 -0.0000
vn -1.0000 -0.0000 -0.0000
vn -0.0000 -0.0000 -1.0000
vn 1.0000 -0.0000 -0.0000
vn -0.0000 -0.0000 1.0000
vn -0.0000 1.0000 -0.0000
vt 0.462290 -0.001341
vt 0.211656 -0.005080
vt 0.215319 0.999246
vt 0.462261 1.003047
vt 0.458573 0.999951
vt 0.214138 0.999951
vt 0.214138 0.000049
vt 0.458573 0.000049
vt 0.000000 1.000000
vt 0.000000 0.000000
vt 1.000000 1.000000
vt 1.000000 0.000000
vt 0.590588 0.000000
vt 0.837588 0.000000
vt 0.837588 1.000000
vt 0.590588 1.000000
vt 0.595559 0.999951
vt 0.595559 0.000049
vt 0.839994 0.000049
vt 0.839994 0.999951
s 1
usemtl Material.040
f 16/1/1 14/2/1 13/3/1 15/4/1
f 17/5/1 19/6/1 20/7/1 18/8/1
f 29/1/1 31/2/1 32/3/1 30/4/1
f 41/1/1 43/2/1 44/3/1 42/4/1
f 72/1/1 70/2/1 69/3/1 71/4/1
f 96/1/1 94/2/1 93/3/1 95/4/1
f 97/1/1 99/2/1 100/3/1 98/4/1
f 57/1/1 59/2/1 60/3/1 58/4/1
f 92/1/1 90/2/1 89/3/1 91/4/1
f 21/1/1 23/2/1 24/3/1 22/4/1
f 56/1/1 54/2/1 53/3/1 55/4/1
f 84/1/1 82/2/1 81/3/1 83/4/1
f 1/1/1 3/2/1 4/3/1 2/4/1
f 112/1/1 110/2/1 109/3/1 111/4/1
f 3/9/2 1/10/2 5/10/2 7/9/2
f 13/11/3 14/9/3 10/9/3 9/11/3
f 59/9/2 57/10/2 61/10/2 63/9/2
f 22/12/4 24/11/4 28/11/4 26/12/4
f 81/11/3 82/9/3 78/9/3 77/11/3
f 99/9/2 97/10/2 101/10/2 103/9/2
f 111/12/4 109/11/4 105/11/4 107/12/4
f 92/10/5 91/12/5 87/12/5 88/10/5
f 42/12/4 44/11/4 48/11/4 46/12/4
f 53/11/3 54/9/3 50/9/3 49/11/3
f 72/10/5 71/12/5 67/12/5 68/10/5
f 70/9/2 72/10/2 68/10/2 66/9/2
f 68/13/6 67/14/6 65/15/6 66/16/6
f 73/17/6 74/18/6 76/19/6 75/20/6
f 80/13/6 79/14/6 77/15/6 78/16/6
f 82/9/2 84/10/2 80/10/2 78/9/2
f 32/11/3 31/9/3 35/9/3 36/11/3
f 91/12/4 89/11/4 85/11/4 87/12/4
f 54/9/2 56/10/2 52/10/2 50/9/2
f 100/11/3 99/9/3 103/9/3 104/11/3
f 110/9/2 112/10/2 108/10/2 106/9/2
f 108/13/6 107/14/6 105/15/6 106/16/6
f 58/12/4 60/11/4 64/11/4 62/12/4
f 30/12/4 32/11/4 36/11/4 34/12/4
f 60/11/3 59/9/3 63/9/3 64/11/3
f 89/11/3 90/9/3 86/9/3 85/11/3
f 88/13/6 87/14/6 85/15/6 86/16/6
f 61/13/6 62/14/6 64/15/6 63/16/6
f 90/9/2 92/10/2 88/10/2 86/9/2
f 57/10/5 58/12/5 62/12/5 61/10/5
f 69/11/3 70/9/3 66/9/3 65/11/3
f 93/11/3 94/9/3 38/9/3 37/11/3
f 71/12/4 69/11/4 65/11/4 67/12/4
f 95/12/4 93/11/4 37/11/4 39/12/4
f 19/9/2 17/10/2 73/10/2 75/9/2
f 96/10/5 95/12/5 39/12/5 40/10/5
f 17/10/5 18/12/5 74/12/5 73/10/5
f 94/9/2 96/10/2 40/10/2 38/9/2
f 18/12/4 20/11/4 76/11/4 74/12/4
f 44/11/3 43/9/3 47/9/3 48/11/3
f 20/11/3 19/9/3 75/9/3 76/11/3
f 56/10/5 55/12/5 51/12/5 52/10/5
f 21/10/5 22/12/5 26/12/5 25/10/5
f 52/13/6 51/14/6 49/15/6 50/16/6
f 23/9/2 21/10/2 25/10/2 27/9/2
f 55/12/4 53/11/4 49/11/4 51/12/4
f 25/13/6 26/14/6 28/15/6 27/16/6
f 31/9/2 29/10/2 33/10/2 35/9/2
f 24/11/3 23/9/3 27/9/3 28/11/3
f 33/13/6 34/14/6 36/15/6 35/16/6
f 40/13/6 39/14/6 37/15/6 38/16/6
f 83/12/4 81/11/4 77/11/4 79/12/4
f 5/13/6 6/14/6 8/15/6 7/16/6
f 45/13/6 46/14/6 48/15/6 47/16/6
f 84/10/5 83/12/5 79/12/5 80/10/5
f 1/10/5 2/12/5 6/12/5 5/10/5
f 43/9/2 41/10/2 45/10/2 47/9/2
f 101/13/6 102/14/6 104/15/6 103/16/6
f 2/12/4 4/11/4 8/11/4 6/12/4
f 41/10/5 42/12/5 46/12/5 45/10/5
f 97/10/5 98/12/5 102/12/5 101/10/5
f 98/12/4 100/11/4 104/11/4 102/12/4
f 4/11/3 3/9/3 7/9/3 8/11/3
f 109/11/3 110/9/3 106/9/3 105/11/3
f 15/12/4 13/11/4 9/11/4 11/12/4
f 16/10/5 15/12/5 11/12/5 12/10/5
f 112/10/5 111/12/5 107/12/5 108/10/5
f 14/9/2 16/10/2 12/10/2 10/9/2
f 29/10/5 30/12/5 34/12/5 33/10/5
f 12/13/6 11/14/6 9/15/6 10/16/6
