# Blender 3.6.22
# www.blender.org
mtllib ParedesNuevas.mtl
o Plane.017
v -1.500001 0.000004 39.034561
v -1.500001 0.000004 39.534561
v -1.500001 10.000004 39.534561
v -1.500001 10.000004 39.034561
v -9.000001 0.000004 39.034561
v -9.000001 0.000004 39.534561
v -9.000001 10.000003 39.034561
v -9.000001 10.000003 39.534561
v -1.574009 0.030276 39.034561
v -6.436738 0.030276 39.034561
v -6.436738 6.734373 39.034561
v -1.574010 6.734373 39.034561
v -6.436738 6.734373 39.534561
v -6.436738 0.030276 39.534561
v -1.574009 0.030276 39.534561
v -1.574010 6.734373 39.534561
v 24.995974 -0.000011 -24.465443
v -8.500001 -0.000011 -24.465443
v -8.500001 -0.000011 -24.965443
v 24.995974 -0.000011 -24.965443
v -8.500001 9.999990 -24.465443
v -8.500001 9.999990 -24.965443
v 24.995974 9.999990 -24.465443
v 24.995974 9.999990 -24.965443
v 24.499998 0.000002 31.520153
v 24.999998 0.000002 31.520153
v 24.499998 -0.000011 -24.459660
v 24.999998 -0.000011 -24.459660
v 24.999998 10.000002 31.520153
v 24.499998 10.000002 31.520153
v 24.499998 9.999990 -24.459660
v 24.999998 9.999990 -24.459660
v 24.499998 2.924593 25.067173
v 24.499998 2.924595 31.500969
v 24.499998 7.528412 31.500969
v 24.499998 7.528410 25.067173
v 24.999998 2.924595 31.500969
v 24.999998 2.924593 25.067173
v 24.999998 7.528411 25.067173
v 24.999998 7.528412 31.500969
v 24.499998 7.528407 9.099706
v 24.499998 7.528410 23.482952
v 24.499998 2.924589 9.099708
v 24.499998 2.924593 23.482952
v 24.999998 2.924589 9.099708
v 24.999998 2.924593 23.482952
v 24.999998 7.528411 23.482952
v 24.999998 7.528407 9.099706
v 24.499998 2.924583 -8.518376
v 24.499998 2.924578 -22.901623
v 24.499998 7.528399 -8.518378
v 24.499998 7.528395 -22.901623
v 24.999998 7.528400 -8.518378
v 24.999998 2.924578 -22.901623
v 24.999998 2.924583 -8.518376
v 24.999998 7.528396 -22.901623
v 24.499998 0.030265 0.611871
v 24.499998 0.030269 7.488310
v 24.499998 2.924587 7.488309
v 24.499998 6.734361 0.611869
v 24.499998 6.734365 7.488307
v 24.999998 0.030265 0.611871
v 24.999998 0.030269 7.488310
v 24.999998 6.734361 0.611869
v 24.999998 6.734365 7.488307
v 24.999998 2.924587 7.488309
v 9.499999 0.000002 32.034561
v 9.499999 0.000002 32.034561
v 24.999998 0.000002 32.034561
v -1.000001 0.000002 32.034561
v -1.000001 0.000004 39.534561
v -1.500001 0.000004 39.534561
v -1.500001 0.000002 31.534557
v -1.000001 0.000002 31.534561
v 9.499999 0.000002 31.534561
v -1.000001 0.000002 31.534561
v 9.499999 0.000002 31.534561
v 24.999998 0.000002 31.534557
v 9.499999 10.000004 32.034561
v 9.499999 10.000004 32.034561
v 24.999998 10.000004 32.034561
v 24.999998 10.000002 31.534557
v -1.000001 10.000004 32.034561
v -1.500001 10.000002 31.534557
v -1.500001 10.000004 39.534557
v -1.000001 10.000004 39.534557
v -1.000001 10.000002 31.534557
v 9.499999 10.000002 31.534557
v -1.000001 10.000002 31.534557
v 9.499999 10.000002 31.534557
v -9.000001 0.000003 39.034561
v -8.500001 0.000003 39.034561
v -9.000001 10.000003 39.034561
v -8.500001 10.000003 39.034561
v -9.000022 -0.000007 -24.965439
v -8.500022 -0.000007 -24.965439
v -9.000022 9.999993 -24.965439
v -8.500022 9.999993 -24.965439
v -8.500016 2.924586 -8.518376
v -8.500021 2.924585 -22.901619
v -8.500021 7.528402 -22.901619
v -8.500016 7.528406 -8.518378
v -9.000016 7.528405 -8.518378
v -9.000016 2.924586 -8.518376
v -9.000021 2.924585 -22.901619
v -9.000021 7.528401 -22.901619
v -8.500010 2.924588 7.465763
v -8.500016 2.924587 -6.917481
v -8.500010 7.528409 7.465763
v -8.500016 7.528407 -6.917481
v -9.000010 2.924588 7.465763
v -9.000016 2.924587 -6.917481
v -9.000010 7.528408 7.465763
v -9.000016 7.528406 -6.917481
v -8.500006 2.924592 23.392593
v -8.500010 2.924590 9.072890
v -8.500006 7.528410 23.392593
v -8.500010 7.528408 9.072888
v -9.000006 7.528410 23.392593
v -9.000010 7.528408 9.072888
v -9.000006 2.924592 23.392593
v -9.000010 2.924590 9.072890
v -8.500006 2.924592 25.114658
v -8.500001 2.924594 38.976734
v -8.500006 7.528410 25.114658
v -8.500001 7.528412 38.976734
v -9.000006 7.528410 25.114658
v -9.000006 2.924592 25.114658
v -9.000001 7.528412 38.976734
v -9.000001 2.924594 38.976734
v -8.500021 -0.000007 -22.901615
v -8.500021 9.999993 -22.901619
v -9.000021 9.999993 -22.901611
v -9.000021 -0.000007 -22.901619
vn 1.0000 -0.0000 -0.0000
vn -1.0000 -0.0000 -0.0000
vn -0.0000 -0.0000 -1.0000
vn -0.0000 -1.0000 -0.0000
vn -0.0000 -0.0000 1.0000
vn -0.0000 1.0000 -0.0000
vt 0.500000 0.000000
vt 1.000000 0.000000
vt 0.767997 0.833970
vt 0.777152 0.836072
vt -0.152231 0.830490
vt -0.152231 0.163928
vt 0.777199 0.163928
vt 0.768027 0.381603
vt 0.165419 0.381603
vt 0.165419 0.828472
vt 0.959891 0.219280
vt 0.966879 0.995045
vt 0.116131 0.994971
vt 0.108301 -1.233896
vt 0.942722 -1.342831
vt 0.943923 -1.233576
vt 0.424534 -1.213936
vt 0.407466 0.236485
vt 0.743256 0.452820
vt 0.742151 0.365487
vt 0.499887 0.362889
vt 0.500992 0.452819
vt 0.375000 0.793284
vt 0.375000 0.918284
vt 0.625000 0.918284
vt 0.625000 0.793284
vt 0.264254 0.516886
vt 0.264254 0.766886
vt 0.625000 0.750000
vt 0.625000 0.500000
vt 0.999024 0.499023
vt 0.499269 0.499622
vt -0.910991 0.275373
vt 1.877447 0.275373
vt 1.877447 1.170908
vt -0.910991 1.170908
vt 1.533017 0.947768
vt -1.255422 0.947768
vt -1.255422 0.052232
vt 1.533017 0.052232
vt 0.000000 0.000000
vt -0.000484 0.500220
vt 0.424722 0.333729
vt 0.560147 0.333614
vt 0.560562 0.720405
vt 0.424932 0.653330
vt 1.780316 0.720199
vt 1.915970 0.720362
vt 2.465274 0.720546
vt 2.466842 0.931565
vt -2.285985 0.926309
vt -2.150856 0.714957
vt -0.925755 0.718125
vt -0.924546 0.328197
vt -2.148384 0.319998
vt -2.280090 0.068435
vt 2.466901 0.068435
vt 2.467628 0.319482
vt 1.915386 0.324704
vt 1.779620 0.325781
vt 0.424748 0.091754
vt -0.152914 0.088917
vt -0.154301 0.652362
vt -0.000000 0.000171
vt 0.145077 0.079480
vt 0.294842 0.000090
vt 0.294842 0.460389
vt 0.145077 0.460389
vt 0.484897 0.699052
vt 0.645317 0.702308
vt 2.077213 0.731377
vt 2.234926 0.734579
vt 2.875431 0.747582
vt 2.871845 1.060830
vt -2.701568 1.010291
vt -2.546436 0.697032
vt -1.114312 0.697032
vt -1.114312 0.203908
vt -2.546437 0.203908
vt -2.701569 -0.060830
vt 2.872276 -0.060830
vt 2.870366 0.203906
vt 2.229762 0.203907
vt 2.072022 0.203907
vt 0.639900 0.203907
vt 0.479455 0.288958
vt -0.205223 0.288959
vt -0.205223 1.007048
vt 0.479460 1.009019
vt 0.144896 0.707504
vt 0.000090 0.999910
vt 0.000090 0.000090
vt 0.144896 0.247205
vt 0.295022 0.000090
vt 0.442262 0.000090
vt 0.442262 0.460389
vt 0.295023 0.460389
vt 0.500000 0.000171
vt 0.625000 0.302415
vt 0.375000 0.302415
vt 0.375000 0.427415
vt 0.625000 0.427415
vt 0.375000 0.822585
vt 0.375000 0.947585
vt 0.625000 0.947585
vt 0.625000 0.822585
vt 0.125000 0.750000
vt 0.125000 0.500000
vt 0.625000 0.424752
vt 0.625000 0.299752
vt 0.375000 0.299752
vt 0.375000 0.424752
vt 0.482931 0.950248
vt 0.625000 0.950248
vt 0.625000 0.825248
vt 0.482931 0.825248
vt 0.375000 0.825248
vt 0.375000 0.950248
vt -0.326200 0.108872
vt 1.089825 0.108871
vt 1.089825 1.022436
vt -0.326200 1.022436
vt -0.235188 0.965356
vt -0.235188 0.087120
vt 0.854966 0.087120
vt 0.854966 0.965356
vt -0.498513 -0.375985
vt 1.220160 -0.375985
vt 1.220159 0.816838
vt -0.498514 0.816838
vt 1.357378 0.603319
vt 1.357378 0.648998
vt 0.443813 0.648998
vt 0.443813 0.603320
vt 0.385220 -0.283357
vt 1.344462 -0.283357
vt 1.344462 0.630208
vt 0.385220 0.630208
vt 0.000089 0.000089
vt 0.799947 0.000089
vt 0.799946 0.999911
vt 0.000089 0.999911
vt 1.220160 2.010991
vt 1.164718 2.010991
vt 1.164718 0.818168
vt 1.220159 0.818168
vt -0.086138 -0.015435
vt 0.975537 -0.015435
vt 0.975537 1.072284
vt -0.086139 1.072284
vt -0.022035 0.976101
vt 0.907368 0.976101
vt 0.996943 0.996208
vt 0.281707 0.095810
vt -2.813852 0.557915
vt -2.813852 0.877346
vt 4.165041 0.877346
vt 4.158525 0.557917
vt 2.596565 0.557916
vt 2.402526 0.557916
vt 0.789003 0.557915
vt 0.607914 0.557915
vt -1.012772 0.557915
vt -1.193159 0.557915
vt 1.264895 -0.183198
vt 0.832907 0.823965
vt 0.517926 0.823965
vt 0.520972 0.214861
vt 0.835549 0.219251
vt 0.464149 0.393939
vt 0.464149 0.887052
vt 0.758643 0.889807
vt 0.753521 0.391185
vt 0.304772 0.124846
vt 2.811739 0.342227
vt 2.811739 0.657754
vt -2.791621 0.657773
vt -2.786390 0.342246
vt -1.532290 0.342242
vt -1.376495 0.342241
vt -0.080993 0.342237
vt 0.064404 0.342236
vt 1.365653 0.342231
vt 1.510486 0.342231
vt 0.137501 0.319530
vt 0.456620 0.319530
vt 0.456620 0.680470
vt 0.137501 0.680470
vt 0.445644 0.295041
vt 0.688215 0.295041
vt 0.688215 0.704959
vt 0.445644 0.704959
vt 4.331174 0.708720
vt 4.331177 1.082791
vt 2.535680 1.082791
vt 2.335835 1.082791
vt 0.540333 1.082791
vt 0.339716 1.082793
vt -1.447854 1.082793
vt -1.662823 1.082793
vt -3.393270 1.082793
vt -3.400490 0.708722
vt 0.375000 0.302769
vt 0.375000 0.427769
vt 0.625000 0.427769
vt 0.625000 0.302769
vt 0.625000 0.947231
vt 0.625000 0.822231
vt 0.375000 0.822231
vt 0.375000 0.947231
vt 0.008803 0.625000
vt 0.241197 0.625000
vt 0.021709 0.608513
vt 0.254103 0.608513
vt 0.060426 0.676195
vt 0.292820 0.676195
vt 1.389895 0.639032
vt 0.097218 0.580723
vt 0.097218 0.635933
vt 0.270161 0.634839
vt 0.272193 0.580177
vt 1.389895 0.566802
vt 0.337221 -0.120620
vt 0.688391 -0.120620
vt 0.688391 0.207610
vt 0.688391 0.819003
vt 0.688392 1.207392
vt 0.337221 1.207392
vt 0.419237 0.806999
vt 0.217366 0.806999
vt 0.217366 0.189451
vt 0.419237 0.189451
vt 2.803199 0.335276
vt 2.803199 0.664720
vt 1.505197 0.664722
vt 1.360725 0.664722
vt 0.062718 0.664723
vt -0.082315 0.664723
vt -1.374592 0.664723
vt -1.529999 0.664723
vt -2.780977 0.664724
vt -2.786196 0.335277
vt 0.278490 0.282208
vt 0.490183 0.287393
vt 0.490183 0.700737
vt 0.278490 0.695552
vt 0.000060 0.999941
vt 0.000060 0.000059
vt 0.351230 0.000059
vt 0.351229 0.292484
vt 0.351229 0.752811
vt 0.351231 0.999941
s 1
usemtl Material.033
f 2/1/1 1/2/1 4/2/1 3/1/1
f 6/1/2 8/1/2 7/2/2 5/2/2
f 12/2/3 4/2/3 1/2/3 9/2/3
f 2/1/4 6/1/4 5/2/4 1/2/4
f 16/11/5 3/12/5 8/13/5 6/14/5 2/15/5 15/16/5 14/17/5 13/18/5
f 2/1/5 3/1/5 16/1/5 15/1/5
f 4/2/6 7/2/6 8/1/6 3/1/6
f 16/19/2 12/20/2 9/21/2 15/22/2
f 14/23/1 10/24/1 11/25/1 13/26/1
f 15/27/6 9/27/6 10/28/6 14/28/6
f 11/29/4 12/30/4 16/30/4 13/29/4
f 20/31/4 17/2/4 18/1/4 19/32/4
f 24/31/6 22/32/6 21/1/6 23/2/6
f 17/2/1 20/31/1 24/31/1 23/2/1
f 19/32/2 18/1/2 21/1/2 22/32/2
f 20/33/3 19/34/3 22/35/3 24/36/3
f 25/41/4 27/42/4 28/32/4 26/1/4
f 30/41/6 29/1/6 32/32/6 31/42/6
f 28/32/3 27/42/3 31/42/3 32/32/3
f 25/41/2 30/41/2 35/64/2 34/64/2
f 65/65/1 48/66/1 45/67/1 66/68/1
f 66/69/1 45/70/1 46/71/1 38/72/1 37/73/1 26/74/1 28/75/1 54/76/1 55/77/1 53/78/1 56/79/1 32/80/1 29/81/1 40/82/1 39/83/1 47/84/1 48/85/1 65/86/1 64/87/1 62/88/1 63/89/1
f 54/90/1 28/91/1 32/92/1 56/93/1
f 47/94/1 39/95/1 38/96/1 46/97/1
f 40/98/1 29/1/1 26/1/1 37/98/1
f 25/41/5 26/1/5 29/1/5 30/41/5
f 36/99/5 33/100/5 38/101/5 39/102/5
f 37/103/3 34/104/3 35/105/3 40/106/3
f 34/107/6 37/107/6 38/108/6 33/108/6
f 35/29/4 36/30/4 39/30/4 40/29/4
f 48/102/5 41/99/5 43/100/5 45/101/5
f 46/103/3 44/104/3 42/105/3 47/106/3
f 45/108/6 43/108/6 44/107/6 46/107/6
f 42/29/4 41/30/4 48/30/4 47/29/4
f 52/99/5 50/100/5 54/101/5 56/102/5
f 51/105/3 53/106/3 55/103/3 49/104/3
f 49/107/6 55/107/6 54/108/6 50/108/6
f 51/29/4 52/30/4 56/30/4 53/29/4
f 64/109/5 60/110/5 57/111/5 62/112/5
f 59/113/3 61/114/3 65/115/3 66/116/3 63/117/3 58/118/3
f 58/107/6 63/107/6 62/108/6 57/108/6
f 61/29/4 60/30/4 64/30/4 65/29/4
f 68/41/4 77/42/4 78/32/4 69/1/4
f 74/31/4 71/2/4 72/1/4 73/32/4
f 80/41/6 81/1/6 82/32/6 90/42/6
f 87/31/6 84/32/6 85/1/6 86/2/6
f 70/123/1 83/124/1 86/125/1 71/126/1
f 68/127/5 69/128/5 81/129/5 80/130/5
f 76/41/4 77/42/4 68/41/4 70/41/4
f 69/1/1 78/32/1 82/32/1 81/1/1
f 72/143/5 71/144/5 86/145/5 85/146/5
f 70/147/5 68/148/5 80/149/5 83/150/5
f 88/151/6 89/152/6 83/150/6 80/149/6 79/41/6
f 92/1/5 94/153/5 93/2/5 91/2/5
f 96/1/3 95/2/3 97/2/3 98/154/3
f 94/153/1 92/1/1 124/1/1 126/165/1
f 93/2/6 94/153/6 132/174/6 98/154/6 97/2/6 133/2/6
f 105/175/2 134/176/2 91/177/2 130/178/2 128/179/2 121/180/2 122/181/2 111/182/2 112/183/2 104/184/2
f 130/2/2 91/2/2 93/2/2 129/2/2
f 120/185/2 113/186/2 111/187/2 122/188/2
f 114/189/2 103/190/2 104/191/2 112/192/2
f 92/1/4 91/2/4 134/2/4 95/2/4 96/1/4 131/1/4
f 105/203/5 100/204/5 101/205/5 106/206/5
f 103/207/3 102/208/3 99/209/3 104/210/3
f 100/211/6 105/211/6 104/212/6 99/212/6
f 101/30/4 102/29/4 103/29/4 106/30/4
f 110/205/5 114/206/5 112/203/5 108/204/5
f 113/207/3 109/208/3 107/209/3 111/210/3
f 108/213/6 112/213/6 111/214/6 107/214/6
f 110/30/4 109/29/4 113/29/4 114/30/4
f 122/203/5 116/204/5 118/205/5 120/206/5
f 117/208/3 115/209/3 121/210/3 119/207/3
f 116/215/6 122/215/6 121/216/6 115/216/6
f 118/30/4 117/29/4 119/29/4 120/30/4
f 128/203/5 123/204/5 125/205/5 127/206/5
f 126/217/3 124/209/3 130/210/3 129/207/3
f 123/218/6 128/219/6 130/220/6 124/221/6
f 125/30/4 126/222/4 129/29/4 127/30/4
f 133/233/2 106/234/2 103/235/2 114/236/2 113/237/2 120/238/2 119/239/2 127/240/2 129/241/2 93/242/2
f 127/243/2 119/244/2 121/245/2 128/246/2
f 97/247/2 95/248/2 134/249/2 105/250/2 106/251/2 133/252/2
usemtl Material.001
f 9/3/3 1/4/3 5/5/3 7/6/3 4/7/3 12/8/3 11/9/3 10/10/3
f 18/37/5 17/38/5 23/39/5 21/40/5
f 59/43/2 43/44/2 41/45/2 61/46/2
f 41/45/2 42/47/2 36/48/2 35/49/2 30/50/2 31/51/2 52/52/2 51/53/2 49/54/2 50/55/2 27/56/2 25/57/2 34/58/2 33/59/2 44/60/2 43/44/2 59/43/2 58/61/2 57/62/2 60/63/2 61/46/2
f 31/51/2 27/56/2 50/55/2 52/52/2
f 33/59/2 36/48/2 42/47/2 44/60/2
f 78/119/3 77/120/3 90/121/3 82/122/3
f 74/131/3 73/132/3 84/133/3 87/134/3
f 77/135/3 74/136/3 89/137/3 88/138/3
f 73/139/2 72/140/2 85/141/2 84/142/2
f 101/155/1 132/156/1 94/157/1 126/158/1 125/159/1 117/160/1 118/161/1 109/162/1 110/163/1 102/164/1
f 116/166/1 107/167/1 109/168/1 118/169/1
f 99/170/1 102/171/1 110/172/1 108/173/1
f 131/193/1 100/194/1 99/195/1 108/196/1 107/197/1 116/198/1 115/199/1 123/200/1 124/201/1 92/202/1
f 98/223/1 132/224/1 101/225/1 100/226/1 131/227/1 96/228/1
f 123/229/1 115/230/1 117/231/1 125/232/1
l 67 75
l 67 79
l 75 88
l 76 89
