# Blender 4.4.3
# www.blender.org
mtllib pizzaron.mtl
o pizzaron
v 17.669827 4.535827 -24.208061
v -2.580161 4.556078 -24.208061
v -2.751634 4.414873 -24.458061
v 17.816708 4.414873 -24.458061
v -2.580161 8.893751 -24.208061
v -2.751634 9.034956 -24.458061
v 17.669827 8.914002 -24.208061
v 17.816708 9.034956 -24.458061
v 4.152813 4.556078 -24.208061
v 4.324286 4.414873 -24.458061
v 4.152813 8.893751 -24.208061
v 4.324286 9.034956 -24.458061
v 17.816708 4.414873 -24.208061
v -2.751634 4.414873 -24.208061
v -2.751634 4.414873 -24.458061
v 17.816708 4.414873 -24.458061
v 4.324286 4.414873 -24.208061
v 4.324286 4.414873 -24.458061
v 4.540630 4.414873 -24.458061
v 4.540630 9.034956 -24.458061
v 4.687510 4.535827 -24.208061
v 4.687510 8.914002 -24.208061
v 4.540630 4.414873 -24.458061
v 4.540630 4.414873 -24.208061
v 17.816708 9.034956 -24.208061
v 17.816708 4.414873 -24.208061
v 4.540630 4.414873 -24.208061
v 4.540630 9.034956 -24.208061
v 4.324286 4.414873 -24.208061
v -2.751634 4.414873 -24.208061
v 4.324286 9.034956 -24.208061
v -2.751634 9.034956 -24.208061
v 17.669827 8.914002 -24.256262
v 17.669827 4.535827 -24.256262
v 4.687510 4.535827 -24.256262
v 4.687510 8.914002 -24.256262
v 4.152813 4.556078 -24.256262
v -2.580161 4.556078 -24.256262
v 4.152813 8.893751 -24.256262
v -2.580161 8.893751 -24.256262
vn -0.0000 -0.0000 1.0000
vn -0.0000 1.0000 -0.0000
vn 1.0000 -0.0000 -0.0000
vn -1.0000 -0.0000 -0.0000
vn -0.0000 -0.0000 -1.0000
vn -0.0000 -1.0000 -0.0000
vn -0.0000 -0.0000 -0.0000
vt 0.677269 0.000000
vt 0.672010 0.000000
vt 0.671195 0.499416
vt 0.499269 0.499622
vt 0.500000 0.000000
vt 0.672010 0.000000
vt 1.000000 0.000000
vt 0.999024 0.499023
vt 0.671195 0.499416
vt 0.680840 0.000000
vt 0.996429 0.000000
vt 0.680840 0.000000
vt 0.676451 0.499409
vt 0.676451 0.499409
vt 0.676451 0.499409
vt 0.000000 0.000000
vt 0.996429 0.000000
vt 0.667842 0.000000
vt 0.504168 0.000000
vt 0.667842 0.000000
s 0
usemtl Material
f 35/10/1 34/11/1 33/17/1 36/12/1
f 38/19/1 37/18/1 39/20/1 40/19/1
usemtl Material.003
f 27/1/1 29/2/1 17/2/1 24/1/1
f 12/3/2 6/4/2 32/5/2 31/6/2
f 26/7/3 4/8/3 8/8/3 25/7/3
f 3/4/4 30/5/4 32/5/4 6/4/4
f 10/9/5 3/4/5 6/4/5 12/3/5
f 21/10/2 1/11/2 34/11/2 35/10/2
f 22/12/3 21/10/3 35/10/3 36/12/3
f 19/13/5 10/9/5 12/3/5 20/14/5
f 20/14/2 12/3/2 31/6/2 28/1/2
f 19/13/1 4/8/1 16/8/1 23/15/1
f 18/9/6 17/2/6 14/5/6 15/4/6
f 23/15/6 24/1/6 17/2/6 18/9/6
f 29/2/1 30/5/1 14/5/1 17/2/1
f 3/4/1 10/9/1 18/9/1 15/4/1
f 4/16/7 26/16/7 13/16/7 16/16/7
f 30/16/7 3/16/7 15/16/7 14/16/7
f 16/8/6 13/7/6 24/1/6 23/15/6
f 10/9/1 19/13/1 23/15/1 18/9/1
f 8/8/2 20/14/2 28/1/2 25/7/2
f 4/8/5 19/13/5 20/14/5 8/8/5
f 29/2/1 27/1/1 28/1/1 31/6/1
f 26/7/1 27/1/1 24/1/1 13/7/1
f 7/17/1 1/11/1 26/7/1 25/7/1
f 1/11/1 21/10/1 27/1/1 26/7/1
f 22/12/1 7/17/1 25/7/1 28/1/1
f 21/10/1 22/12/1 28/1/1 27/1/1
f 9/18/1 2/19/1 30/5/1 29/2/1
f 5/19/1 11/20/1 31/6/1 32/5/1
f 2/19/1 5/19/1 32/5/1 30/5/1
f 11/20/1 9/18/1 29/2/1 31/6/1
f 5/19/3 2/19/3 38/19/3 40/19/3
f 2/19/2 9/18/2 37/18/2 38/19/2
f 7/17/6 22/12/6 36/12/6 33/17/6
f 9/18/4 11/20/4 39/20/4 37/18/4
f 1/11/4 7/17/4 33/17/4 34/11/4
f 11/20/6 5/19/6 40/19/6 39/20/6
