# Blender 4.3.2
# www.blender.org
mtllib puerta der.mtl
o puerta
v -1.615497 0.099701 39.127907
v -1.615494 6.664944 39.127907
v -1.615496 0.099701 39.423607
v -1.615494 6.664945 39.423607
v -3.962837 0.099702 39.127911
v -3.962835 6.664945 39.127907
v -3.962837 0.099702 39.423607
v -3.962835 6.664946 39.423607
vn -0.0000 -0.0000 -1.0000
vn 1.0000 -0.0000 -0.0000
vn -1.0000 -0.0000 -0.0000
vn -0.0000 1.0000 -0.0000
vn -0.0000 -1.0000 -0.0000
vn -0.0000 -0.0000 1.0000
vt 0.384352 0.001943
vt 0.384352 0.997923
vt -0.001140 0.997923
vt -0.001140 0.001943
vt 0.375000 0.250000
vt 0.625000 0.250000
vt 0.625000 0.500000
vt 0.375000 0.500000
vt 0.451087 0.088558
vt 0.201087 0.088558
vt 0.201087 0.588558
vt 0.451087 0.588558
vt 0.875000 0.500000
vt 0.875000 0.625000
vt 0.625000 0.625000
vt 0.125000 0.500000
vt 0.375000 0.625000
vt 0.125000 0.625000
vt 0.382838 0.000060
vt 0.382838 0.999940
vt 0.006029 0.999940
vt 0.006030 0.000060
s 1
usemtl Material.003
f 5/1/1 6/2/1 2/3/1 1/4/1
f 1/5/2 2/6/2 4/7/2 3/8/2
f 6/9/3 5/10/3 7/11/3 8/12/3
f 4/7/4 2/13/4 6/14/4 8/15/4
f 1/16/5 3/8/5 7/17/5 5/18/5
f 3/19/6 4/20/6 8/21/6 7/22/6
