# Blender 3.6.22
# www.blender.org
mtllib suelo.mtl
o suelo.019
v -9.000000 -0.099994 39.534561
v -1.000000 -0.099994 39.534561
v -1.000000 -0.099996 32.534561
v -9.000000 -0.100004 -24.465439
v 25.000000 -0.100004 -24.465439
v 25.000000 -0.099996 32.534561
vn -0.0000 1.0000 -0.0000
vt 9.082213 -16.095867
vt 9.082216 17.095867
vt 4.933247 17.095867
vt 4.933247 13.465525
vt -8.550898 13.465525
vt -8.550898 -16.095867
s 0
usemtl Material.018
f 4/1/1 1/2/1 2/3/1 3/4/1 6/5/1 5/6/1
o suelo.020
v 8.000000 -0.080544 32.534561
v 7.000000 -0.080544 32.534561
v 7.999693 -0.079682 -24.466358
v 7.000307 -0.044679 -24.462496
vn -0.0175 -0.9998 -0.0003
vt 0.005873 -9.133655
vt 0.388650 -9.134958
vt 0.388650 10.134957
vt 0.005873 10.134959
s 0
usemtl Material.020
f 10/7/2 9/8/2 7/9/2 8/10/2
