# Blender 3.6.22
# www.blender.org
mtllib VentanasNuevas.mtl
o bolleano.008
v 24.290340 7.528412 28.204472
v 25.290340 7.528413 28.204472
v 24.290340 2.924595 28.204472
v 25.290340 2.924594 28.204472
v 24.290340 2.924595 28.437893
v 24.290340 7.528412 28.437893
v 25.290340 2.924594 28.437893
v 25.290340 7.528413 28.437893
v 24.654320 2.924595 25.010185
v 24.654320 7.528412 25.010185
v 24.813122 2.924595 25.010185
v 24.813122 7.528412 25.010185
v 24.654320 2.924595 31.600967
v 24.654320 7.528412 31.600967
v 24.813122 2.924595 31.600967
v 24.813122 7.528412 31.600967
v 24.654320 2.924594 23.482956
v 24.654320 7.528412 23.482956
v 24.654316 2.924593 9.099712
v 24.654320 7.528411 9.099711
v 24.654316 2.924593 13.894127
v 24.654320 2.924593 18.688541
v 24.654320 7.528411 18.688541
v 24.654320 7.528411 13.894127
v 24.813122 2.924594 23.482956
v 24.813122 7.528412 23.482956
v 24.813122 2.924593 9.099712
v 24.813122 7.528411 9.099711
v 24.813122 2.924593 13.894127
v 24.813122 2.924593 18.688541
v 24.813122 7.528411 18.688541
v 24.813122 7.528411 13.894127
v 24.290340 7.528411 13.660704
v 24.290340 7.528411 18.455116
v 25.290340 7.528411 18.455116
v 25.290340 7.528411 13.660704
v 24.290340 2.924594 18.455116
v 24.290340 2.924594 13.660704
v 25.290340 2.924593 13.660704
v 25.290340 2.924593 18.455116
v 24.290340 2.924594 13.894127
v 24.290340 2.924594 18.688541
v 24.290340 7.528411 18.688541
v 24.290340 7.528411 13.894127
v 25.290340 2.924593 18.688541
v 25.290340 2.924593 13.894127
v 25.290340 7.528411 13.894127
v 25.290340 7.528411 18.688541
v 24.290340 7.528409 -18.341274
v 24.290340 7.528409 -13.546861
v 25.290340 7.528410 -13.546861
v 25.290340 7.528409 -18.341274
v 24.290340 2.924592 -13.546861
v 24.290340 2.924592 -18.341274
v 25.290340 2.924591 -18.341274
v 25.290340 2.924591 -13.546861
v 24.290340 2.924592 -18.107853
v 24.290340 2.924592 -13.313437
v 24.290340 7.528409 -13.313437
v 24.290340 7.528409 -18.107853
v 25.290340 2.924591 -13.313437
v 25.290340 2.924591 -18.107853
v 25.290340 7.528409 -18.107853
v 25.290340 7.528410 -13.313437
v 24.654320 2.924592 -8.519023
v 24.654320 7.528409 -8.519023
v 24.654316 2.924591 -22.902267
v 24.654320 7.528408 -22.902267
v 24.654316 2.924592 -18.107853
v 24.654320 2.924592 -13.313437
v 24.654320 7.528409 -13.313437
v 24.654320 7.528409 -18.107853
v 24.813122 2.924592 -8.519023
v 24.813122 7.528409 -8.519023
v 24.813122 2.924591 -22.902267
v 24.813122 7.528408 -22.902267
v 24.813122 2.924592 -18.107853
v 24.813122 2.924592 -13.313437
v 24.813122 7.528409 -13.313437
v 24.813122 7.528409 -18.107853
v -9.225410 7.528409 -18.341274
v -9.225410 7.528409 -13.546861
v -8.225410 7.528410 -13.546861
v -8.225410 7.528409 -18.341274
v -9.225410 2.924592 -13.546861
v -9.225410 2.924592 -18.341274
v -8.225410 2.924591 -18.341274
v -8.225410 2.924591 -13.546861
v -9.225410 2.924592 -18.107853
v -9.225410 2.924592 -13.313437
v -9.225410 7.528409 -13.313437
v -9.225410 7.528409 -18.107853
v -8.225410 2.924591 -13.313437
v -8.225410 2.924591 -18.107853
v -8.225410 7.528409 -18.107853
v -8.225410 7.528410 -13.313437
v -8.861429 2.924592 -8.519023
v -8.861429 7.528409 -8.519023
v -8.861431 2.924591 -22.902267
v -8.861430 7.528408 -22.902267
v -8.861430 2.924592 -18.107853
v -8.861430 2.924592 -13.313437
v -8.861429 7.528409 -13.313437
v -8.861429 7.528409 -18.107853
v -8.702627 2.924592 -8.519023
v -8.702626 7.528409 -8.519023
v -8.702628 2.924591 -22.902267
v -8.702627 7.528408 -22.902267
v -8.702627 2.924592 -18.107853
v -8.702627 2.924592 -13.313437
v -8.702626 7.528409 -13.313437
v -8.702626 7.528409 -18.107853
v -9.225410 7.528410 -2.356426
v -9.225410 7.528410 2.437987
v -8.225410 7.528411 2.437987
v -8.225410 7.528411 -2.356426
v -9.225410 2.924593 2.437987
v -9.225410 2.924593 -2.356426
v -8.225410 2.924592 -2.356426
v -8.225410 2.924592 2.437987
v -9.225410 2.924593 -2.123004
v -9.225410 2.924593 2.671411
v -9.225410 7.528410 2.671411
v -9.225410 7.528410 -2.123004
v -8.225410 2.924592 2.671411
v -8.225410 2.924592 -2.123004
v -8.225410 7.528411 -2.123004
v -8.225410 7.528411 2.671411
v -8.861430 2.924593 7.465825
v -8.861429 7.528410 7.465825
v -8.861431 2.924592 -6.917418
v -8.861430 7.528409 -6.917418
v -8.861431 2.924593 -2.123004
v -8.861431 2.924593 2.671411
v -8.861430 7.528410 2.671411
v -8.861430 7.528410 -2.123004
v -8.702627 2.924593 7.465825
v -8.702626 7.528410 7.465825
v -8.702628 2.924592 -6.917418
v -8.702627 7.528409 -6.917418
v -8.702628 2.924593 -2.123004
v -8.702628 2.924593 2.671411
v -8.702627 7.528410 2.671411
v -8.702627 7.528410 -2.123004
v -9.225410 7.528411 13.633846
v -9.225410 7.528411 18.428261
v -8.225410 7.528412 18.428261
v -8.225410 7.528412 13.633846
v -9.225410 2.924594 18.428261
v -9.225410 2.924594 13.633846
v -8.225410 2.924593 13.633846
v -8.225410 2.924593 18.428261
v -9.225410 2.924594 13.867270
v -9.225410 2.924594 18.661682
v -9.225410 7.528411 18.661682
v -9.225410 7.528411 13.867270
v -8.225410 2.924593 18.661682
v -8.225410 2.924593 13.867270
v -8.225410 7.528412 13.867270
v -8.225410 7.528412 18.661682
v -8.861430 2.924595 23.456097
v -8.861429 7.528412 23.456097
v -8.861431 2.924594 9.072853
v -8.861430 7.528411 9.072852
v -8.861431 2.924594 13.867268
v -8.861431 2.924594 18.661682
v -8.861430 7.528411 18.661682
v -8.861430 7.528411 13.867268
v -8.702627 2.924595 23.456097
v -8.702626 7.528412 23.456097
v -8.702628 2.924594 9.072853
v -8.702627 7.528411 9.072852
v -8.702628 2.924594 13.867268
v -8.702628 2.924594 18.661682
v -8.702627 7.528411 18.661682
v -8.702627 7.528411 13.867268
v -9.225410 7.528412 29.422024
v -9.225410 7.528413 34.216438
v -8.225410 7.528414 34.216438
v -8.225410 7.528413 29.422024
v -9.225410 2.924596 34.216438
v -9.225410 2.924595 29.422024
v -8.225410 2.924594 29.422024
v -8.225410 2.924595 34.216438
v -9.225410 2.924595 29.655445
v -9.225410 2.924596 34.449860
v -9.225410 7.528413 34.449860
v -9.225410 7.528412 29.655445
v -8.225410 2.924595 34.449860
v -8.225410 2.924594 29.655445
v -8.225410 7.528413 29.655445
v -8.225410 7.528414 34.449860
v -8.861431 2.924596 38.928295
v -8.861430 7.528413 38.928295
v -8.861432 2.924595 25.059406
v -8.861431 7.528412 25.059406
v -8.861432 2.924595 29.682369
v -8.861431 2.924596 34.305332
v -8.861431 7.528413 34.305332
v -8.861431 7.528412 29.682369
v -8.702628 2.924596 38.928295
v -8.702627 7.528413 38.928295
v -8.702629 2.924595 25.059406
v -8.702628 7.528412 25.059406
v -8.702629 2.924595 29.682369
v -8.702628 2.924596 34.305332
v -8.702628 7.528413 34.305332
v -8.702628 7.528412 29.682369
vn 0.5773 0.5774 -0.5774
vn 0.5773 -0.5774 -0.5774
vn -0.5774 -0.5773 -0.5773
vn -0.5774 0.5773 -0.5774
vn 0.5774 0.5774 0.5773
vn -0.5774 0.5774 0.5774
vn -0.5774 -0.5774 0.5774
vn 0.5774 -0.5774 0.5774
vn -0.5774 -0.5774 -0.5774
vn -0.5774 0.5774 -0.5774
vn 0.5774 0.5774 -0.5774
vn 0.5774 -0.5774 -0.5774
vn 0.5774 0.5774 0.5774
vn -0.7071 -0.7071 -0.0000
vn -0.7071 0.7071 -0.0000
vn 0.7071 -0.7071 -0.0000
vn 0.7071 0.7071 -0.0000
vn -0.5774 -0.5773 0.5774
vn 0.5773 -0.5774 0.5774
vn -0.5774 -0.5773 -0.5774
vn 0.5773 0.5774 0.5774
vn -0.5774 0.5773 0.5774
vn 0.5774 -0.5774 -0.5773
vn -0.5773 -0.5774 -0.5774
vn -0.5773 0.5774 -0.5774
vt 0.000000 0.000000
vt 0.375000 0.000000
vt 0.625000 0.000000
vt 0.341312 0.999916
vt 0.341312 0.000084
vt 1.039719 0.000084
vt 1.039719 0.999916
vt 0.000057 0.639470
vt 0.320103 0.639470
vt 0.320103 0.972766
vt 0.000057 0.972766
vt 0.000057 -0.027121
vt 0.320102 -0.027121
vt 0.320103 0.306175
vt 0.000057 0.306175
vt 0.375000 0.166667
vt 0.375000 0.250000
vt 0.625000 0.250000
vt 0.625000 0.166667
vt 0.375000 0.083333
vt 0.625000 0.083333
vt 0.000057 0.615313
vt 0.320102 0.615313
vt 0.320102 0.948608
vt 0.000057 0.948608
vt 0.000057 -0.051279
vt 0.320102 -0.051279
vt 0.320102 0.282017
vt 0.000057 0.282017
vt 0.000057 0.333352
vt 0.000057 0.000057
vt 0.320102 0.000057
vt 0.320102 0.333352
vt 0.000057 0.999943
vt 0.000057 0.666648
vt 0.320102 0.666648
vt 0.320102 0.999943
vt 0.000057 0.333352
vt 0.000057 0.000057
vt 0.320102 0.000057
vt 0.320102 0.333352
vt 0.000057 0.999943
vt 0.320102 0.999943
vt 0.000057 0.333352
vt 0.000057 0.000057
vt 0.320102 0.000057
vt 0.320102 0.333352
vt 0.000057 0.666648
vt 0.320102 0.666648
vt 0.000058 0.333352
vt 0.331973 0.333352
vt 0.331972 0.000058
vt 0.000058 0.000058
vt 0.000058 0.999942
vt 0.331972 0.999942
vt 0.331972 0.666647
vt 0.000058 0.666648
vt 0.000058 0.633431
vt 0.331972 0.633430
vt 0.331973 0.300136
vt 0.000058 0.300135
s 1
usemtl Material.038
f 2/1/1 4/1/2 3/1/3 1/1/4
f 8/1/5 6/1/6 5/1/7 7/1/8
f 7/1/8 5/1/7 3/1/3 4/1/2
f 6/1/6 8/1/5 2/1/1 1/1/4
f 8/1/5 7/1/8 4/1/2 2/1/1
f 5/1/7 6/1/6 1/1/4 3/1/3
f 47/1/13 44/1/6 41/1/18 46/1/19
f 36/1/11 39/1/12 38/1/9 33/1/10
f 35/1/1 40/1/2 37/1/20 34/1/10
f 48/1/13 43/1/6 42/1/7 45/1/8
f 41/1/18 38/1/9 39/1/12 46/1/19
f 45/1/8 42/1/7 37/1/20 40/1/2
f 47/1/13 36/1/11 33/1/10 44/1/6
f 43/1/6 48/1/13 35/1/1 34/1/10
f 46/1/19 39/1/12 36/1/11 47/1/13
f 48/1/13 45/1/8 40/1/2 35/1/1
f 44/1/6 33/1/10 38/1/9 41/1/18
f 42/1/7 43/1/6 34/1/10 37/1/20
f 63/1/21 60/1/22 57/1/18 62/1/19
f 52/1/1 55/1/2 54/1/3 49/1/4
f 51/1/11 56/1/23 53/1/24 50/1/25
f 64/1/21 59/1/22 58/1/18 61/1/19
f 57/1/18 54/1/3 55/1/2 62/1/19
f 61/1/19 58/1/18 53/1/24 56/1/23
f 63/1/21 52/1/1 49/1/4 60/1/22
f 59/1/22 64/1/21 51/1/11 50/1/25
f 62/1/19 55/1/2 52/1/1 63/1/21
f 64/1/21 61/1/19 56/1/23 51/1/11
f 60/1/22 49/1/4 54/1/3 57/1/18
f 58/1/18 59/1/22 50/1/25 53/1/24
f 95/1/21 92/1/22 89/1/18 94/1/19
f 84/1/1 87/1/2 86/1/3 81/1/4
f 83/1/11 88/1/23 85/1/24 82/1/25
f 96/1/21 91/1/22 90/1/18 93/1/19
f 89/1/18 86/1/3 87/1/2 94/1/19
f 93/1/19 90/1/18 85/1/24 88/1/23
f 95/1/21 84/1/1 81/1/4 92/1/22
f 91/1/22 96/1/21 83/1/11 82/1/25
f 94/1/19 87/1/2 84/1/1 95/1/21
f 96/1/21 93/1/19 88/1/23 83/1/11
f 92/1/22 81/1/4 86/1/3 89/1/18
f 90/1/18 91/1/22 82/1/25 85/1/24
f 127/1/13 124/1/6 121/1/7 126/1/8
f 116/1/1 119/1/2 118/1/20 113/1/4
f 115/1/1 120/1/2 117/1/9 114/1/4
f 128/1/21 123/1/22 122/1/18 125/1/19
f 121/1/7 118/1/20 119/1/2 126/1/8
f 125/1/19 122/1/18 117/1/9 120/1/2
f 127/1/13 116/1/1 113/1/4 124/1/6
f 123/1/22 128/1/21 115/1/1 114/1/4
f 126/1/8 119/1/2 116/1/1 127/1/13
f 128/1/21 125/1/19 120/1/2 115/1/1
f 124/1/6 113/1/4 118/1/20 121/1/7
f 122/1/18 123/1/22 114/1/4 117/1/9
f 159/1/21 156/1/22 153/1/18 158/1/19
f 148/1/11 151/1/12 150/1/9 145/1/4
f 147/1/1 152/1/2 149/1/9 146/1/4
f 160/1/21 155/1/22 154/1/18 157/1/19
f 153/1/18 150/1/9 151/1/12 158/1/19
f 157/1/19 154/1/18 149/1/9 152/1/2
f 159/1/21 148/1/11 145/1/4 156/1/22
f 155/1/22 160/1/21 147/1/1 146/1/4
f 158/1/19 151/1/12 148/1/11 159/1/21
f 160/1/21 157/1/19 152/1/2 147/1/1
f 156/1/22 145/1/4 150/1/9 153/1/18
f 154/1/18 155/1/22 146/1/4 149/1/9
f 191/1/21 188/1/22 185/1/18 190/1/19
f 180/1/1 183/1/2 182/1/9 177/1/4
f 179/1/11 184/1/23 181/1/24 178/1/25
f 192/1/5 187/1/6 186/1/7 189/1/8
f 185/1/18 182/1/9 183/1/2 190/1/19
f 189/1/8 186/1/7 181/1/24 184/1/23
f 191/1/21 180/1/1 177/1/4 188/1/22
f 187/1/6 192/1/5 179/1/11 178/1/25
f 190/1/19 183/1/2 180/1/1 191/1/21
f 192/1/5 189/1/8 184/1/23 179/1/11
f 188/1/22 177/1/4 182/1/9 185/1/18
f 186/1/7 187/1/6 178/1/25 181/1/24
usemtl Material.037
f 9/2/9 10/3/10 12/3/11 11/2/12
f 13/2/7 15/2/8 16/3/13 14/3/6
f 12/3/11 16/3/13 15/2/8 11/2/12
f 10/3/10 14/3/6 16/3/13 12/3/11
f 9/4/9 13/5/7 14/6/6 10/7/10
f 11/2/12 15/2/8 13/2/7 9/2/9
f 21/8/14 24/9/15 20/10/10 19/11/9
f 17/12/7 18/13/6 23/14/15 22/15/14
f 22/15/14 23/14/15 24/9/15 21/8/14
f 29/16/16 27/17/12 28/18/11 32/19/17
f 25/2/8 30/20/16 31/21/17 26/3/13
f 30/20/16 29/16/16 32/19/17 31/21/17
f 17/2/7 25/2/8 26/3/13 18/3/6
f 18/3/6 26/3/13 31/21/17 23/21/15
f 19/17/9 27/17/12 29/16/16 21/16/14
f 24/19/15 32/19/17 28/18/11 20/18/10
f 22/20/14 30/20/16 25/2/8 17/2/7
f 23/21/15 31/21/17 32/19/17 24/19/15
f 21/16/14 29/16/16 30/20/16 22/20/14
f 20/18/10 28/18/11 27/17/12 19/17/9
f 69/22/14 72/23/15 68/24/10 67/25/9
f 65/26/7 66/27/6 71/28/15 70/29/14
f 70/29/14 71/28/15 72/23/15 69/22/14
f 77/16/16 75/17/12 76/18/11 80/19/17
f 73/2/8 78/20/16 79/21/17 74/3/13
f 78/20/16 77/16/16 80/19/17 79/21/17
f 71/21/15 79/21/17 80/19/17 72/19/15
f 69/16/14 77/16/16 78/20/16 70/20/14
f 68/18/10 76/18/11 75/17/12 67/17/9
f 65/2/7 73/2/8 74/3/13 66/3/6
f 66/3/6 74/3/13 79/21/17 71/21/15
f 67/17/9 75/17/12 77/16/16 69/16/14
f 72/19/15 80/19/17 76/18/11 68/18/10
f 70/20/14 78/20/16 73/2/8 65/2/7
f 101/16/14 104/19/15 100/18/10 99/17/9
f 97/2/7 98/3/6 103/21/15 102/20/14
f 102/20/14 103/21/15 104/19/15 101/16/14
f 109/30/16 107/31/12 108/32/11 112/33/17
f 105/34/8 110/35/16 111/36/17 106/37/13
f 110/35/16 109/30/16 112/33/17 111/36/17
f 98/3/6 106/3/13 111/21/17 103/21/15
f 99/17/9 107/17/12 109/16/16 101/16/14
f 104/19/15 112/19/17 108/18/11 100/18/10
f 102/20/14 110/20/16 105/2/8 97/2/7
f 103/21/15 111/21/17 112/19/17 104/19/15
f 101/16/14 109/16/16 110/20/16 102/20/14
f 100/18/10 108/18/11 107/17/12 99/17/9
f 97/2/7 105/2/8 106/3/13 98/3/6
f 133/16/14 136/19/15 132/18/10 131/17/9
f 129/2/7 130/3/6 135/21/15 134/20/14
f 134/20/14 135/21/15 136/19/15 133/16/14
f 141/38/16 139/39/12 140/40/11 144/41/17
f 137/42/8 142/35/16 143/36/17 138/43/13
f 142/35/16 141/38/16 144/41/17 143/36/17
f 130/3/6 138/3/13 143/21/17 135/21/15
f 131/17/9 139/17/12 141/16/16 133/16/14
f 136/19/15 144/19/17 140/18/11 132/18/10
f 134/20/14 142/20/16 137/2/8 129/2/7
f 135/21/15 143/21/17 144/19/17 136/19/15
f 133/16/14 141/16/16 142/20/16 134/20/14
f 132/18/10 140/18/11 139/17/12 131/17/9
f 129/2/7 137/2/8 138/3/13 130/3/6
f 165/16/14 168/19/15 164/18/10 163/17/9
f 161/2/7 162/3/6 167/21/15 166/20/14
f 166/20/14 167/21/15 168/19/15 165/16/14
f 173/44/16 171/45/12 172/46/11 176/47/17
f 169/34/8 174/48/16 175/49/17 170/37/13
f 174/48/16 173/44/16 176/47/17 175/49/17
f 162/3/6 170/3/13 175/21/17 167/21/15
f 163/17/9 171/17/12 173/16/16 165/16/14
f 168/19/15 176/19/17 172/18/11 164/18/10
f 166/20/14 174/20/16 169/2/8 161/2/7
f 167/21/15 175/21/17 176/19/17 168/19/15
f 165/16/14 173/16/16 174/20/16 166/20/14
f 164/18/10 172/18/11 171/17/12 163/17/9
f 161/2/7 169/2/8 170/3/13 162/3/6
f 197/16/17 195/17/13 196/18/8 200/19/16
f 193/2/11 198/20/17 199/21/16 194/3/12
f 198/20/17 197/16/17 200/19/16 199/21/16
f 205/50/15 208/51/14 204/52/7 203/53/6
f 201/54/10 202/55/9 207/56/14 206/57/15
f 206/58/15 207/59/14 208/60/14 205/61/15
f 194/3/12 199/21/16 207/21/14 202/3/9
f 195/17/13 197/16/17 205/16/15 203/17/6
f 200/19/16 196/18/8 204/18/7 208/19/14
f 198/20/17 193/2/11 201/2/10 206/20/15
f 199/21/16 200/19/16 208/19/14 207/21/14
f 197/16/17 198/20/17 206/20/15 205/16/15
f 196/18/8 195/17/13 203/17/6 204/18/7
f 193/2/11 194/3/12 202/3/9 201/2/10
